<?xml version="1.0" encoding="UTF-8" standalone="no"?>
<!DOCTYPE svg PUBLIC "-//W3C//DTD SVG 1.1//EN"
 "http://www.w3.org/Graphics/SVG/1.1/DTD/svg11.dtd">
<!-- Generated by graphviz version 2.47.3 (20210619.1520)
 -->
<!-- Title: dependencies Pages: 1 -->
<svg width="1591pt" height="247pt"
 viewBox="0.00 0.00 1591.00 246.80" xmlns="http://www.w3.org/2000/svg" xmlns:xlink="http://www.w3.org/1999/xlink">
<g id="graph0" class="graph" transform="scale(1 1) rotate(0) translate(4 242.8)">
<title>dependencies</title>
<polygon fill="white" stroke="transparent" points="-4,4 -4,-242.8 1587,-242.8 1587,4 -4,4"/>
<text text-anchor="middle" x="791.5" y="-8.2" font-family="sans-serif" font-size="14.00">dependencies</text>
<g id="clust1" class="cluster">
<title>cluster_AppModule</title>
<polygon fill="none" stroke="black" stroke-dasharray="1,5" points="8,-32.8 8,-230.8 1575,-230.8 1575,-32.8 8,-32.8"/>
</g>
<g id="clust12" class="cluster">
<title>cluster_AppModule_imports</title>
<polygon fill="none" stroke="black" points="1423,-40.8 1423,-92.8 1567,-92.8 1567,-40.8 1423,-40.8"/>
</g>
<g id="clust14" class="cluster">
<title>cluster_AppModule_bootstrap</title>
<polygon fill="none" stroke="black" points="774,-170.8 774,-222.8 898,-222.8 898,-170.8 774,-170.8"/>
</g>
<g id="clust2" class="cluster">
<title>cluster_AppModule_declarations</title>
<polygon fill="none" stroke="black" points="16,-40.8 16,-92.8 1415,-92.8 1415,-40.8 16,-40.8"/>
</g>
<!-- AppComponent -->
<g id="node1" class="node">
<title>AppComponent</title>
<polygon fill="#ffffb3" stroke="black" points="1406.94,-84.8 1301.06,-84.8 1301.06,-48.8 1406.94,-48.8 1406.94,-84.8"/>
<text text-anchor="middle" x="1354" y="-62.6" font-family="Times,serif" font-size="14.00">AppComponent</text>
</g>
<!-- AppModule -->
<g id="node10" class="node">
<title>AppModule</title>
<polygon fill="#8dd3c7" stroke="black" points="877.66,-149.8 874.66,-153.8 853.66,-153.8 850.66,-149.8 794.34,-149.8 794.34,-113.8 877.66,-113.8 877.66,-149.8"/>
<text text-anchor="middle" x="836" y="-127.6" font-family="Times,serif" font-size="14.00">AppModule</text>
</g>
<!-- AppComponent&#45;&gt;AppModule -->
<g id="edge1" class="edge">
<title>AppComponent&#45;&gt;AppModule</title>
<path fill="none" stroke="black" d="M1354,-84.93C1354,-105.37 1354,-135.8 1354,-135.8 1354,-135.8 887.95,-135.8 887.95,-135.8"/>
<polygon fill="black" stroke="black" points="887.95,-132.3 877.95,-135.8 887.95,-139.3 887.95,-132.3"/>
</g>
<!-- DropdownDirective -->
<g id="node2" class="node">
<title>DropdownDirective</title>
<polygon fill="#ffffb3" stroke="black" points="1282.96,-84.8 1155.04,-84.8 1155.04,-48.8 1282.96,-48.8 1282.96,-84.8"/>
<text text-anchor="middle" x="1219" y="-62.6" font-family="Times,serif" font-size="14.00">DropdownDirective</text>
</g>
<!-- DropdownDirective&#45;&gt;AppModule -->
<g id="edge2" class="edge">
<title>DropdownDirective&#45;&gt;AppModule</title>
<path fill="none" stroke="black" d="M1219,-85.07C1219,-103.36 1219,-128.8 1219,-128.8 1219,-128.8 887.72,-128.8 887.72,-128.8"/>
<polygon fill="black" stroke="black" points="887.72,-125.3 877.72,-128.8 887.72,-132.3 887.72,-125.3"/>
</g>
<!-- HeaderComponent -->
<g id="node3" class="node">
<title>HeaderComponent</title>
<polygon fill="#ffffb3" stroke="black" points="1136.74,-84.8 1015.26,-84.8 1015.26,-48.8 1136.74,-48.8 1136.74,-84.8"/>
<text text-anchor="middle" x="1076" y="-62.6" font-family="Times,serif" font-size="14.00">HeaderComponent</text>
</g>
<!-- HeaderComponent&#45;&gt;AppModule -->
<g id="edge3" class="edge">
<title>HeaderComponent&#45;&gt;AppModule</title>
<path fill="none" stroke="black" d="M1076,-84.81C1076,-100.85 1076,-121.8 1076,-121.8 1076,-121.8 887.8,-121.8 887.8,-121.8"/>
<polygon fill="black" stroke="black" points="887.8,-118.3 877.8,-121.8 887.8,-125.3 887.8,-118.3"/>
</g>
<!-- RecipeDetailComponent -->
<g id="node4" class="node">
<title>RecipeDetailComponent</title>
<polygon fill="#ffffb3" stroke="black" points="997.41,-84.8 842.59,-84.8 842.59,-48.8 997.41,-48.8 997.41,-84.8"/>
<text text-anchor="middle" x="920" y="-62.6" font-family="Times,serif" font-size="14.00">RecipeDetailComponent</text>
</g>
<!-- RecipeDetailComponent&#45;&gt;AppModule -->
<g id="edge4" class="edge">
<title>RecipeDetailComponent&#45;&gt;AppModule</title>
<path fill="none" stroke="black" d="M860.31,-84.91C860.31,-84.91 860.31,-103.79 860.31,-103.79"/>
<polygon fill="black" stroke="black" points="856.81,-103.79 860.31,-113.79 863.81,-103.79 856.81,-103.79"/>
</g>
<!-- RecipeItemComponent -->
<g id="node5" class="node">
<title>RecipeItemComponent</title>
<polygon fill="#ffffb3" stroke="black" points="824.86,-84.8 679.14,-84.8 679.14,-48.8 824.86,-48.8 824.86,-84.8"/>
<text text-anchor="middle" x="752" y="-62.6" font-family="Times,serif" font-size="14.00">RecipeItemComponent</text>
</g>
<!-- RecipeItemComponent&#45;&gt;AppModule -->
<g id="edge5" class="edge">
<title>RecipeItemComponent&#45;&gt;AppModule</title>
<path fill="none" stroke="black" d="M809.55,-84.91C809.55,-84.91 809.55,-103.79 809.55,-103.79"/>
<polygon fill="black" stroke="black" points="806.05,-103.79 809.55,-113.79 813.05,-103.79 806.05,-103.79"/>
</g>
<!-- RecipeListComponent -->
<g id="node6" class="node">
<title>RecipeListComponent</title>
<polygon fill="#ffffb3" stroke="black" points="660.98,-84.8 519.02,-84.8 519.02,-48.8 660.98,-48.8 660.98,-84.8"/>
<text text-anchor="middle" x="590" y="-62.6" font-family="Times,serif" font-size="14.00">RecipeListComponent</text>
</g>
<!-- RecipeListComponent&#45;&gt;AppModule -->
<g id="edge6" class="edge">
<title>RecipeListComponent&#45;&gt;AppModule</title>
<path fill="none" stroke="black" d="M590,-84.81C590,-100.85 590,-121.8 590,-121.8 590,-121.8 784.27,-121.8 784.27,-121.8"/>
<polygon fill="black" stroke="black" points="784.27,-125.3 794.27,-121.8 784.27,-118.3 784.27,-125.3"/>
</g>
<!-- RecipesComponent -->
<g id="node7" class="node">
<title>RecipesComponent</title>
<polygon fill="#ffffb3" stroke="black" points="500.65,-84.8 375.35,-84.8 375.35,-48.8 500.65,-48.8 500.65,-84.8"/>
<text text-anchor="middle" x="438" y="-62.6" font-family="Times,serif" font-size="14.00">RecipesComponent</text>
</g>
<!-- RecipesComponent&#45;&gt;AppModule -->
<g id="edge7" class="edge">
<title>RecipesComponent&#45;&gt;AppModule</title>
<path fill="none" stroke="black" d="M438,-85.07C438,-103.36 438,-128.8 438,-128.8 438,-128.8 784.16,-128.8 784.16,-128.8"/>
<polygon fill="black" stroke="black" points="784.16,-132.3 794.16,-128.8 784.16,-125.3 784.16,-132.3"/>
</g>
<!-- ShoppingEditComponent -->
<g id="node8" class="node">
<title>ShoppingEditComponent</title>
<polygon fill="#ffffb3" stroke="black" points="357.34,-84.8 198.66,-84.8 198.66,-48.8 357.34,-48.8 357.34,-84.8"/>
<text text-anchor="middle" x="278" y="-62.6" font-family="Times,serif" font-size="14.00">ShoppingEditComponent</text>
</g>
<!-- ShoppingEditComponent&#45;&gt;AppModule -->
<g id="edge8" class="edge">
<title>ShoppingEditComponent&#45;&gt;AppModule</title>
<path fill="none" stroke="black" d="M278,-84.93C278,-105.37 278,-135.8 278,-135.8 278,-135.8 784.06,-135.8 784.06,-135.8"/>
<polygon fill="black" stroke="black" points="784.06,-139.3 794.06,-135.8 784.06,-132.3 784.06,-139.3"/>
</g>
<!-- ShoppingListComponent -->
<g id="node9" class="node">
<title>ShoppingListComponent</title>
<polygon fill="#ffffb3" stroke="black" points="180.28,-84.8 23.72,-84.8 23.72,-48.8 180.28,-48.8 180.28,-84.8"/>
<text text-anchor="middle" x="102" y="-62.6" font-family="Times,serif" font-size="14.00">ShoppingListComponent</text>
</g>
<!-- ShoppingListComponent&#45;&gt;AppModule -->
<g id="edge9" class="edge">
<title>ShoppingListComponent&#45;&gt;AppModule</title>
<path fill="none" stroke="black" d="M102,-84.81C102,-107.29 102,-142.8 102,-142.8 102,-142.8 784.17,-142.8 784.17,-142.8"/>
<polygon fill="black" stroke="black" points="784.17,-146.3 794.17,-142.8 784.17,-139.3 784.17,-146.3"/>
</g>
<!-- AppComponent  -->
<g id="node12" class="node">
<title>AppComponent </title>
<polygon fill="#80b1d3" stroke="black" points="890.44,-214.8 781.56,-214.8 781.56,-178.8 890.44,-178.8 890.44,-214.8"/>
<text text-anchor="middle" x="836" y="-192.6" font-family="Times,serif" font-size="14.00">AppComponent </text>
</g>
<!-- AppModule&#45;&gt;AppComponent  -->
<g id="edge11" class="edge">
<title>AppModule&#45;&gt;AppComponent </title>
<path fill="none" stroke="black" stroke-dasharray="1,5" d="M836,-149.91C836,-149.91 836,-168.79 836,-168.79"/>
<polygon fill="black" stroke="black" points="832.5,-168.79 836,-178.79 839.5,-168.79 832.5,-168.79"/>
</g>
<!-- AppRoutingModule -->
<g id="node11" class="node">
<title>AppRoutingModule</title>
<polygon fill="#8dd3c7" stroke="black" points="1559.27,-84.8 1556.27,-88.8 1535.27,-88.8 1532.27,-84.8 1430.73,-84.8 1430.73,-48.8 1559.27,-48.8 1559.27,-84.8"/>
<text text-anchor="middle" x="1495" y="-62.6" font-family="Times,serif" font-size="14.00">AppRoutingModule</text>
</g>
<!-- AppRoutingModule&#45;&gt;AppModule -->
<g id="edge10" class="edge">
<title>AppRoutingModule&#45;&gt;AppModule</title>
<path fill="none" stroke="black" d="M1495,-84.81C1495,-107.29 1495,-142.8 1495,-142.8 1495,-142.8 887.72,-142.8 887.72,-142.8"/>
<polygon fill="black" stroke="black" points="887.72,-139.3 877.72,-142.8 887.72,-146.3 887.72,-139.3"/>
</g>
</g>
</svg>
